<svg width="50" height="50" viewBox="0 0 50 50" fill="none" xmlns="http://www.w3.org/2000/svg">
<g clip-path="url(#clip0_2_373)">
<path d="M25 46.7448C13.0094 46.7448 3.2552 36.9906 3.2552 25C3.2552 13.0094 13.0094 3.25523 25 3.25523C36.9906 3.25523 46.7448 13.0094 46.7448 25C46.7448 36.9906 36.9906 46.7448 25 46.7448ZM25 49.8698C38.7354 49.8698 49.8698 38.7354 49.8698 25C49.8698 11.2646 38.7354 0.13023 25 0.13023C11.2646 0.13023 0.130199 11.2646 0.130199 25C0.130199 38.7354 11.2646 49.8698 25 49.8698Z" fill="white"/>
<path d="M23.4375 12.4656C23.4375 11.6031 24.1365 10.9031 25 10.9031C25.8635 10.9031 26.5625 11.6031 26.5625 12.4656L26.5625 32.4271L33.8833 25.0719C34.1885 24.7656 34.5896 24.6115 34.9906 24.6115C35.3896 24.6115 35.7885 24.7636 36.0927 25.0667C36.7042 25.675 36.7062 26.6646 36.0979 27.2761L26.1073 37.3146C25.8146 37.6094 25.4156 37.775 25 37.775C24.5844 37.775 24.1833 37.6084 23.8917 37.3136L13.9312 27.275C13.3229 26.6625 13.3271 25.6729 13.9396 25.0646C14.5531 24.4573 15.5417 24.4604 16.149 25.0729L23.4344 32.4156L23.4375 12.4656Z" fill="white"/>
</g>
<defs>
<clipPath id="clip0_2_373">
<rect width="50" height="50" fill="white" transform="matrix(-1 0 0 -1 50 50)"/>
</clipPath>
</defs>
</svg>
