<svg width="50" height="50" viewBox="0 0 50 50" fill="none" xmlns="http://www.w3.org/2000/svg">
<path d="M25.0002 3.25525C36.9908 3.25525 46.745 13.0094 46.745 25C46.745 36.9907 36.9908 46.7448 25.0002 46.7448C13.0095 46.7448 3.25537 36.9907 3.25537 25C3.25537 13.0094 13.0095 3.25525 25.0002 3.25525ZM25.0002 0.130249C11.2647 0.130249 0.130371 11.2646 0.130371 25C0.130371 38.7355 11.2647 49.8698 25.0002 49.8698C38.7356 49.8698 49.87 38.7355 49.87 25C49.87 11.2646 38.7356 0.130249 25.0002 0.130249Z" fill="#3952E9"/>
<path d="M26.5625 37.5344C26.5625 38.3969 25.8635 39.0969 25 39.0969C24.1365 39.0969 23.4375 38.3969 23.4375 37.5344V17.5729L16.1167 24.9281C15.8115 25.2344 15.4104 25.3885 15.0094 25.3885C14.6104 25.3885 14.2115 25.2364 13.9073 24.9333C13.2958 24.325 13.2938 23.3354 13.9021 22.7239L23.8927 12.6854C24.1854 12.3906 24.5844 12.225 25 12.225C25.4156 12.225 25.8167 12.3916 26.1083 12.6864L36.0688 22.725C36.6771 23.3375 36.6729 24.3271 36.0604 24.9354C35.4469 25.5427 34.4583 25.5396 33.851 24.9271L26.5656 17.5844L26.5625 37.5344Z" fill="#3952E9"/>
</svg>
